# xmcd CD database file
#
# Track frame offsets:
#	150
#	15162
#	40959
#	52594
#	67984
#	85218
#	100593
#	115059
#	129840
#	144157
#	163948
#	182001
#	201750
#	221211
#	241137
#
# Disc length: 3472 seconds
#
# Revision: 0
# Processed by: cddbd v1.5.2PL0 Copyright (c) Steve Scherf et al.
# Submitted via: CDex 1.51
#
DISCID=b90d8e0f
DTITLE=Bandari - 20th Anniversary Collection
DYEAR=2010
DGENRE=New Age
TTITLE0=Believe Me If All Those Endearing Young Charms New
TTITLE1=The Wind Of Change
TTITLE2=Danny Boy New
TTITLE3=Indian Dreams
TTITLE4=The Foggy Dew
TTITLE5=Annie's Wonderland
TTITLE6=Childhoood Memory
TTITLE7=Kiss Of A Fairy
TTITLE8=Mystica
TTITLE9=The Book Of Life
TTITLE10=Orinoco Dreams
TTITLE11=Woodland Night
TTITLE12=Starry Sky
TTITLE13=One Day In Spring
TTITLE14=Indian Summer
EXTD=YEAR: 2010
EXTT0=
EXTT1=
EXTT2=
EXTT3=
EXTT4=
EXTT5=
EXTT6=
EXTT7=
EXTT8=
EXTT9=
EXTT10=
EXTT11=
EXTT12=
EXTT13=
EXTT14=
PLAYORDER=
